<svg xmlns="http://www.w3.org/2000/svg" width="160px" height="160px" viewBox="0 0 160 160"
  role="img" aria-labelledby="title" aria-describedby="desc">
  <title id="title">Television box and remote</title>
  <desc id="desc">A black television box and matching touch remote</desc>
  <path fill="#222222" d="M83,140H29c-11.6,0-21-9.4-21-21V57c0-11.6,9.4-21,21-21h54c11.6,0,21,9.4,21,21v62C104,
    130.6,94.6,140,83,140z"/>
  <path fill="#222222" d="M142,140h-20c-5.5,0-10-4.5-10-10V30c0-5.5,4.5-10,10-10h20c5.5,0,10,4.5,10,10v100
    C152,135.5,147.5,140,142,140z"/>
  <path fill="#333333" d="M83,125H29c-11,0-20-9-20-20V57c0-11,9-20,20-20h54c11,0,20,9,20,20v48C103,116,94,125,83,125z"/>
  <path fill="#666666" d="M150,136c1.3-1.7,2-3.7,2-6V76h-32L150,136z"/>
  <path fill="#444444" d="M140,106L140,106c-3.3,0-6-2.7-6-6V84c0-3.3,2.7-6,6-6l0,0c3.3,0,6,2.7,6,6v16C146,103.3,143.3,106,140,106z"/>
  <path fill="#444444" d="M152,76h-40V30c0-5.5,4.5-10,10-10h20c5.5,0,10,4.5,10,10V76z"/>
  <circle fill="#333333" cx="124" cy="68" r="6"/>
  <circle fill="#333333" cx="140" cy="68" r="6"/>
  <circle fill="#333333" cx="124" cy="84" r="6"/>
  <path fill="#444444" d="M124,78c-1,0-1.9,0.2-2.7,0.6l5.4,10.7c2-1,3.3-3,3.3-5.4C130,80.7,127.3,78,124,78z"/>
  <circle fill="#333333" cx="124" cy="100" r="6"/>
  <path fill="#222222" d="M51,89h-2c-0.6,0-1-0.4-1-1V74c0-0.6,0.4-1,1-1h2c0.6,0,1,0.4,1,1v14C52,88.6,51.6,89,51,89z"/>
  <path fill="#222222" d="M56,88v-2c0-0.6,0.4-1,1-1h10c0.6,0,1,0.4,1,1v2c0,0.6-0.4,1-1,1H57C56.4,89,56,88.6,56,88z"/>
  <path fill="#222222" d="M44,80v-2c0-0.6,0.4-1,1-1h6c0.6,0,1,0.4,1,1v2c0,0.6-0.4,1-1,1h-6C44.4,81,44,80.6,44,80z"/>
  <path fill="#222222" d="M67,81h-2c-0.6,0-1-0.4-1-1v-6c0-0.6,0.4-1,1-1h2c0.6,0,1,0.4,1,1v6C68,80.6,67.6,81,67,81z"/>
  <circle fill="#222222" cx="58" cy="75" r="2"/>
  <path fill="#222222" d="M133.5,23h-3c-0.3,0-0.5-0.2-0.5-0.5l0,0c0-0.3,0.2-0.5,0.5-0.5h3c0.3,0,0.5,0.2,0.5,0.5l0,0
    C134,22.8,133.8,23,133.5,23z"/>
</svg>
